<svg xmlns="http://www.w3.org/2000/svg" viewBox="0 0 520 360" role="img" aria-label="Soft paint splash">
  <g opacity=".42">
    <path d="M198 68c70-35 151-12 177 44 30 64-20 137-88 152-76 17-168-19-185-87-12-48 34-87 96-109Z" fill="#d7b98a"/>
    <path d="M153 142c-22 9-43 2-48-14-6-18 12-32 32-29 23 4 39 31 16 43Z" fill="#9fb5c8"/>
    <path d="M365 92c23-8 47 5 51 27 4 24-23 38-45 28-24-11-33-45-6-55Z" fill="#a78f9e"/>
    <path d="M288 276c16 9 18 32 2 43-17 11-40-2-39-21 1-19 20-32 37-22Z" fill="#9aa68d"/>
    <circle cx="418" cy="218" r="17" fill="#b58a55"/>
    <circle cx="96" cy="220" r="10" fill="#a78f9e"/>
    <circle cx="347" cy="311" r="7" fill="#9fb5c8"/>
  </g>
</svg>
