<svg xmlns="http://www.w3.org/2000/svg" viewBox="0 0 1200 90" role="img" aria-label="Soft brush divider">
  <path d="M18 53C169 20 299 71 446 44c143-26 274-39 418-10 103 21 206 17 318-8" fill="none" stroke="#b58a55" stroke-width="5" stroke-linecap="round" opacity=".36"/>
  <path d="M35 61c170-17 274-4 418-21 156-19 285-10 414 9 124 19 212 1 299-18" fill="none" stroke="#9fb5c8" stroke-width="9" stroke-linecap="round" opacity=".2"/>
  <path d="M96 48c83 7 161 8 233 3 51-3 99-12 149-20 93-14 202 11 286 19 109 10 205-4 332-31" fill="none" stroke="#a78f9e" stroke-width="3" stroke-linecap="round" opacity=".26"/>
</svg>
